<svg width="18" height="14" viewBox="0 0 18 14" fill="none" xmlns="http://www.w3.org/2000/svg">
<path d="M16.875 0H0.625C0.279297 0 0 0.279297 0 0.625V13.125C0 13.4707 0.279297 13.75 0.625 13.75H16.875C17.2207 13.75 17.5 13.4707 17.5 13.125V0.625C17.5 0.279297 17.2207 0 16.875 0ZM16.0938 12.3438H1.40625V11.5645L4.11133 8.35547L7.04297 11.832L11.6035 6.42578L16.0938 11.75V12.3438ZM16.0938 9.80859L11.7227 4.625C11.6602 4.55078 11.5469 4.55078 11.4844 4.625L7.04297 9.89063L4.23047 6.55664C4.16797 6.48242 4.05469 6.48242 3.99219 6.55664L1.40625 9.62305V1.40625H16.0938V9.80859ZM4.6875 5.78125C4.91321 5.78125 5.13671 5.73679 5.34524 5.65042C5.55377 5.56404 5.74324 5.43744 5.90284 5.27784C6.06244 5.11824 6.18904 4.92877 6.27542 4.72024C6.36179 4.51171 6.40625 4.28821 6.40625 4.0625C6.40625 3.83679 6.36179 3.61329 6.27542 3.40476C6.18904 3.19623 6.06244 3.00676 5.90284 2.84716C5.74324 2.68756 5.55377 2.56096 5.34524 2.47458C5.13671 2.38821 4.91321 2.34375 4.6875 2.34375C4.23166 2.34375 3.79449 2.52483 3.47216 2.84716C3.14983 3.16949 2.96875 3.60666 2.96875 4.0625C2.96875 4.51834 3.14983 4.95551 3.47216 5.27784C3.79449 5.60017 4.23166 5.78125 4.6875 5.78125V5.78125ZM4.6875 3.51562C4.99023 3.51562 5.23438 3.75977 5.23438 4.0625C5.23438 4.36523 4.99023 4.60938 4.6875 4.60938C4.38477 4.60938 4.14062 4.36523 4.14062 4.0625C4.14062 3.75977 4.38477 3.51562 4.6875 3.51562Z" fill="#1677FF"/>
</svg>
