<svg width="18" height="17" viewBox="0 0 18 17" fill="none" xmlns="http://www.w3.org/2000/svg">
<path d="M8.76328 2.95677e-05C5.78477 -0.00778293 3.16367 1.53323 1.66563 3.86136C1.59922 3.96487 1.67344 4.10159 1.79648 4.10159H3.16953C3.26328 4.10159 3.35117 4.06058 3.40977 3.98831C3.54648 3.8223 3.69297 3.66214 3.84727 3.5098C4.48398 2.87503 5.22422 2.37503 6.04844 2.02737C6.9 1.668 7.80625 1.4844 8.7418 1.4844C9.67734 1.4844 10.5836 1.66605 11.4352 2.02737C12.2594 2.37503 12.9996 2.87503 13.6363 3.5098C14.273 4.14456 14.7711 4.8848 15.1207 5.70706C15.482 6.55862 15.6637 7.46292 15.6637 8.39847C15.6637 9.33401 15.4801 10.2383 15.1207 11.0899C14.773 11.9121 14.273 12.6524 13.6363 13.2871C12.9996 13.9219 12.2594 14.4219 11.4352 14.7696C10.5829 15.1295 9.66693 15.3142 8.7418 15.3125C7.80625 15.3125 6.9 15.1289 6.04844 14.7696C5.22584 14.4223 4.47833 13.9188 3.84727 13.2871C3.69297 13.1328 3.54844 12.9727 3.40977 12.8086C3.35117 12.7364 3.26133 12.6953 3.16953 12.6953H1.79648C1.67344 12.6953 1.59727 12.8321 1.66563 12.9356C3.16172 15.2578 5.77109 16.7969 8.7418 16.7969C13.3551 16.7969 17.1012 13.084 17.148 8.48441C17.1949 3.81058 13.443 0.0117483 8.76328 2.95677e-05ZM6.28906 10.586V9.10159H0.15625C0.0703125 9.10159 0 9.03128 0 8.94534V7.85159C0 7.76565 0.0703125 7.69534 0.15625 7.69534H6.28906V6.21097C6.28906 6.08011 6.44141 6.00589 6.54297 6.08792L9.31445 8.27542C9.33313 8.29004 9.34823 8.30871 9.35862 8.33003C9.36901 8.35135 9.37441 8.37475 9.37441 8.39847C9.37441 8.42218 9.36901 8.44559 9.35862 8.4669C9.34823 8.48822 9.33313 8.5069 9.31445 8.52151L6.54297 10.709C6.44141 10.7891 6.28906 10.7168 6.28906 10.586Z" fill="white"/>
</svg>
