<svg width="18" height="18" viewBox="0 0 18 18" fill="none" xmlns="http://www.w3.org/2000/svg">
<path d="M8.75 0C3.91797 0 0 3.91797 0 8.75C0 13.582 3.91797 17.5 8.75 17.5C13.582 17.5 17.5 13.582 17.5 8.75C17.5 3.91797 13.582 0 8.75 0ZM4.375 6.97266C4.38001 6.72733 4.48098 6.49374 4.65625 6.32201C4.83152 6.15028 5.06712 6.0541 5.3125 6.0541C5.55788 6.0541 5.79348 6.15028 5.96875 6.32201C6.14402 6.49374 6.24499 6.72733 6.25 6.97266C6.24499 7.21798 6.14402 7.45157 5.96875 7.6233C5.79348 7.79503 5.55788 7.89121 5.3125 7.89121C5.06712 7.89121 4.83152 7.79503 4.65625 7.6233C4.48098 7.45157 4.38001 7.21798 4.375 6.97266ZM8.75 12.2852C7.08008 12.2852 5.71094 10.9707 5.625 9.32422C5.62394 9.30305 5.6272 9.28189 5.63457 9.26202C5.64195 9.24216 5.65329 9.22399 5.66791 9.20865C5.68252 9.1933 5.70011 9.18109 5.71959 9.17275C5.73908 9.16441 5.76006 9.16013 5.78125 9.16016H6.7207C6.80273 9.16016 6.87305 9.22266 6.87891 9.30469C6.95312 10.2715 7.76367 11.0352 8.75 11.0352C9.73633 11.0352 10.5488 10.2715 10.6211 9.30469C10.627 9.22266 10.6973 9.16016 10.7793 9.16016H11.7188C11.7399 9.16013 11.7609 9.16441 11.7804 9.17275C11.7999 9.18109 11.8175 9.1933 11.8321 9.20865C11.8467 9.22399 11.858 9.24216 11.8654 9.26202C11.8728 9.28189 11.8761 9.30305 11.875 9.32422C11.7891 10.9707 10.4199 12.2852 8.75 12.2852ZM12.1875 7.91016C11.9422 7.90515 11.7086 7.80418 11.5369 7.62891C11.3651 7.45364 11.2689 7.21803 11.2689 6.97266C11.2689 6.72728 11.3651 6.49168 11.5369 6.31641C11.7086 6.14114 11.9422 6.04016 12.1875 6.03516C12.4328 6.04016 12.6664 6.14114 12.8381 6.31641C13.0099 6.49168 13.1061 6.72728 13.1061 6.97266C13.1061 7.21803 13.0099 7.45364 12.8381 7.62891C12.6664 7.80418 12.4328 7.90515 12.1875 7.91016Z" fill="black" fill-opacity="0.55"/>
</svg>
