<svg width="108" height="56" viewBox="0 0 108 56" fill="none" xmlns="http://www.w3.org/2000/svg">
<path d="M9.76133 6.68605C11.614 6.68605 12.9804 7.13179 13.8604 8.02327C14.7404 8.89188 15.3194 10.0234 15.5973 11.4177L15.0067 11.1091L15.2847 10.5605C15.5626 10.0348 15.991 9.47477 16.57 8.88045C17.1489 8.26328 17.8437 7.74897 18.6542 7.33752C19.4879 6.90321 20.4143 6.68605 21.4332 6.68605C23.1007 6.68605 24.3628 7.04036 25.2197 7.74897C26.0997 8.45757 26.7018 9.40619 27.026 10.5948C27.3503 11.7606 27.5124 13.0635 27.5124 14.5036V23.2812C27.5124 23.8755 27.3155 24.3784 26.9218 24.7898C26.5281 25.1784 26.0302 25.3727 25.4281 25.3727C24.826 25.3727 24.3281 25.1784 23.9344 24.7898C23.5407 24.3784 23.3438 23.8755 23.3438 23.2812V14.5036C23.3438 13.7493 23.2512 13.075 23.0659 12.4806C22.8807 11.8635 22.5449 11.372 22.0585 11.0063C21.5722 10.6405 20.8774 10.4577 19.9743 10.4577C19.0942 10.4577 18.3416 10.6405 17.7163 11.0063C17.091 11.372 16.6163 11.8635 16.292 12.4806C15.991 13.075 15.8405 13.7493 15.8405 14.5036V23.2812C15.8405 23.8755 15.6436 24.3784 15.2499 24.7898C14.8562 25.1784 14.3583 25.3727 13.7562 25.3727C13.1541 25.3727 12.6562 25.1784 12.2625 24.7898C11.8688 24.3784 11.6719 23.8755 11.6719 23.2812V14.5036C11.6719 13.7493 11.5793 13.075 11.394 12.4806C11.2087 11.8635 10.8729 11.372 10.3866 11.0063C9.90028 10.6405 9.20553 10.4577 8.30234 10.4577C7.42232 10.4577 6.66966 10.6405 6.04438 11.0063C5.4191 11.372 4.94435 11.8635 4.62013 12.4806C4.31907 13.075 4.16854 13.7493 4.16854 14.5036V23.2812C4.16854 23.8755 3.97169 24.3784 3.578 24.7898C3.1843 25.1784 2.68639 25.3727 2.08427 25.3727C1.48215 25.3727 0.984239 25.1784 0.590543 24.7898C0.196848 24.3784 0 23.8755 0 23.2812V9.12047C0 8.52615 0.196848 8.0347 0.590543 7.6461C0.984239 7.23465 1.48215 7.02893 2.08427 7.02893C2.68639 7.02893 3.1843 7.23465 3.578 7.6461C3.97169 8.0347 4.16854 8.52615 4.16854 9.12047V10.5948L3.64747 10.492C3.8559 10.1034 4.14538 9.69192 4.51592 9.25762C4.88646 8.80045 5.33805 8.37757 5.8707 7.98898C6.40334 7.60039 6.99389 7.2918 7.64233 7.06322C8.29076 6.81178 8.9971 6.68605 9.76133 6.68605Z" fill="#3C7E41"/>
<path d="M35.3209 10.6392C34.9176 14.838 35.1933 16.5478 36.7634 18.1603C37.2822 18.6367 37.6951 19.2202 37.9741 19.8717C38.2531 20.5232 38.3919 21.2279 38.3812 21.9383C38.3709 22.8353 38.3212 23.7454 38.2496 24.6681C38.2197 25.0539 37.8683 25.3383 37.4833 25.2656C35.9215 24.9709 34.6589 24.3243 33.6956 23.3252C32.3525 21.908 31.6809 19.9879 31.6809 17.565V8.85581C31.6809 8.26155 31.8779 7.77008 32.2715 7.38151C32.6652 6.97011 33.1631 6.76441 33.7652 6.76441C34.7991 6.76441 35.6087 7.6428 35.5111 8.6588L35.3209 10.6392Z" fill="#E76A39"/>
<path d="M45.4719 6.76441C46.074 6.76442 46.5719 6.9701 46.9656 7.38151C47.3592 7.77008 47.5561 8.26155 47.5562 8.85581V17.565C47.5562 19.9879 46.8729 21.908 45.5065 23.3252C44.5733 24.2931 43.3592 24.93 41.8642 25.2368C41.4768 25.3162 41.1194 25.0309 41.0894 24.6415C41.0189 23.7279 40.9702 22.8267 40.9601 21.9383C40.9493 21.2279 41.0882 20.5232 41.3671 19.8717C41.6461 19.2202 42.059 18.6367 42.5779 18.1603C44.1479 16.5478 44.4236 14.838 44.0203 10.6392L43.8203 8.55647C43.728 7.59535 44.4938 6.76441 45.4719 6.76441Z" fill="#E76A39"/>
<path d="M38.3181 13.933C38.334 14.0955 38.2867 14.2579 38.1865 14.3857C37.9911 14.6346 37.571 14.6346 37.3757 14.3857C37.2755 14.2579 37.2284 14.0955 37.2444 13.933V7.29429C37.2444 7.00164 37.4847 6.76441 37.7812 6.76441C38.0777 6.76441 38.3181 7.00164 38.3181 7.29429V13.933Z" fill="#E76A39"/>
<path d="M41.9442 13.933C41.9602 14.0955 41.9131 14.2579 41.8129 14.3857C41.6176 14.6346 41.1974 14.6346 41.0021 14.3857C40.9019 14.2579 40.8549 14.0955 40.8708 13.933V7.29412C40.8708 7.00157 41.1111 6.76441 41.4075 6.76441C41.7039 6.76441 41.9442 7.00157 41.9442 7.29412V13.933Z" fill="#E76A39"/>
<path d="M61.6597 6.68605C63.3735 6.68605 64.6703 7.04036 65.5504 7.74897C66.4536 8.45757 67.0673 9.40619 67.3915 10.5948C67.7389 11.7606 67.9126 13.0635 67.9126 14.5036V23.2812C67.9126 23.8755 67.7157 24.3784 67.322 24.7898C66.9283 25.1784 66.4304 25.3727 65.8283 25.3727C65.2262 25.3727 64.7282 25.1784 64.3346 24.7898C63.9409 24.3784 63.744 23.8755 63.744 23.2812V14.5036C63.744 13.7493 63.6398 13.075 63.4314 12.4806C63.2461 11.8635 62.8987 11.372 62.3892 11.0063C61.8797 10.6405 61.1502 10.4577 60.2007 10.4577C59.2744 10.4577 58.487 10.6405 57.8386 11.0063C57.2133 11.372 56.727 11.8635 56.3796 12.4806C56.0554 13.075 55.8933 13.7493 55.8933 14.5036V23.2812C55.8933 23.8755 55.6964 24.3784 55.3027 24.7898C54.909 25.1784 54.4111 25.3727 53.809 25.3727C53.2069 25.3727 52.709 25.1784 52.3153 24.7898C51.9216 24.3784 51.7247 23.8755 51.7247 23.2812V9.12047C51.7247 8.52615 51.9216 8.0347 52.3153 7.6461C52.709 7.23465 53.2069 7.02893 53.809 7.02893C54.4111 7.02893 54.909 7.23465 55.3027 7.6461C55.6964 8.0347 55.8933 8.52615 55.8933 9.12047V10.5948L55.3722 10.492C55.5806 10.1034 55.8817 9.69192 56.2754 9.25762C56.6691 8.80045 57.1322 8.37757 57.6649 7.98898C58.1975 7.60039 58.7997 7.2918 59.4713 7.06322C60.1429 6.81178 60.8723 6.68605 61.6597 6.68605Z" fill="#3C7E41"/>
<path d="M81.2171 6.34318C82.5372 6.34318 83.6835 6.48033 84.6562 6.75463C85.652 7.02893 86.4162 7.41752 86.9489 7.9204C87.5047 8.40043 87.7826 8.98332 87.7826 9.66906C87.7826 10.1262 87.6436 10.5605 87.3657 10.972C87.0878 11.3606 86.6826 11.5549 86.1499 11.5549C85.7794 11.5549 85.4667 11.5092 85.212 11.4177C84.9804 11.3034 84.772 11.1663 84.5867 11.0063C84.4014 10.8463 84.1814 10.6977 83.9267 10.5605C83.6951 10.4234 83.3362 10.3205 82.8498 10.252C82.3867 10.1605 82.0393 10.1148 81.8077 10.1148C80.6266 10.1148 79.6192 10.3662 78.7855 10.8691C77.975 11.372 77.3497 12.0578 76.9096 12.9264C76.4696 13.7721 76.2496 14.755 76.2496 15.8751C76.2496 16.9723 76.4696 17.9552 76.9096 18.8238C77.3728 19.6696 77.9981 20.3439 78.7855 20.8468C79.596 21.3497 80.5224 21.6011 81.5645 21.6011C82.1435 21.6011 82.6414 21.5668 83.0583 21.4982C83.4751 21.4297 83.8225 21.3268 84.1004 21.1897C84.4246 21.0068 84.7141 20.8125 84.9688 20.6068C85.2236 20.401 85.6057 20.2982 86.1152 20.2982C86.7173 20.2982 87.1805 20.4925 87.5047 20.8811C87.8289 21.2468 87.991 21.704 87.991 22.2526C87.991 22.824 87.6668 23.3498 87.0184 23.8298C86.3699 24.287 85.5131 24.6641 84.4478 24.9613C83.4056 25.2356 82.2709 25.3727 81.0434 25.3727C79.2139 25.3727 77.6276 24.9613 76.2844 24.1384C74.9412 23.2926 73.899 22.1497 73.158 20.7096C72.4401 19.2696 72.0811 17.658 72.0811 15.8751C72.0811 14.0007 72.4632 12.3549 73.2274 10.9377C74.0148 9.49763 75.0917 8.37757 76.4581 7.57753C77.8476 6.75463 79.4339 6.34318 81.2171 6.34318Z" fill="#3C7E41"/>
<path d="M101.921 6.68605C103.588 6.68605 104.85 7.04036 105.707 7.74897C106.587 8.45757 107.189 9.40619 107.514 10.5948C107.838 11.7606 108 13.0635 108 14.5036V23.2812C108 23.8755 107.803 24.3784 107.409 24.7898C107.016 25.1784 106.518 25.3727 105.916 25.3727C105.314 25.3727 104.816 25.1784 104.422 24.7898C104.028 24.3784 103.831 23.8755 103.831 23.2812V14.5036C103.831 13.7493 103.739 13.075 103.554 12.4806C103.368 11.8635 103.032 11.372 102.546 11.0063C102.06 10.6405 101.365 10.4577 100.462 10.4577C99.5819 10.4577 98.8292 10.6405 98.2039 11.0063C97.5786 11.372 97.1039 11.8635 96.7797 12.4806C96.4786 13.075 96.3281 13.7493 96.3281 14.5036V23.2812C96.3281 23.8755 96.1312 24.3784 95.7375 24.7898C95.3438 25.1784 94.8459 25.3727 94.2438 25.3727C93.6417 25.3727 93.1438 25.1784 92.7501 24.7898C92.3564 24.3784 92.1596 23.8755 92.1596 23.2812V2.09153C92.1596 1.49722 92.3564 1.00576 92.7501 0.617173C93.1438 0.205724 93.6417 0 94.2438 0C94.8459 0 95.3438 0.205724 95.7375 0.617173C96.1312 1.00576 96.3281 1.49722 96.3281 2.09153V10.5948L95.807 10.492C96.0154 10.1034 96.3049 9.69192 96.6755 9.25762C97.046 8.80045 97.4976 8.37757 98.0302 7.98898C98.5629 7.60039 99.1534 7.2918 99.8019 7.06322C100.45 6.81178 101.157 6.68605 101.921 6.68605Z" fill="#3C7E41"/>
<path d="M3.66646 46.2966C3.43488 45.9766 3.33066 45.5652 3.35382 45.0623C3.37698 44.5594 3.67804 44.1251 4.257 43.7594C4.62754 43.5308 5.02124 43.4394 5.43809 43.4851C5.85494 43.5079 6.26022 43.7137 6.65391 44.1022C7.32551 44.7651 8.03185 45.2795 8.77292 45.6452C9.514 46.0109 10.4403 46.1938 11.552 46.1938C11.8993 46.1709 12.2814 46.1252 12.6983 46.0566C13.1152 45.9652 13.4741 45.7823 13.7752 45.508C14.0994 45.2109 14.2615 44.7651 14.2615 44.1708C14.2615 43.6679 14.0878 43.2679 13.7404 42.9708C13.3931 42.6736 12.9299 42.4222 12.3509 42.2164C11.7951 42.0107 11.1698 41.8164 10.4751 41.6336C9.75716 41.4278 9.01609 41.1992 8.25186 40.9478C7.51078 40.6964 6.8276 40.3763 6.20232 39.9878C5.57704 39.5763 5.06755 39.0391 4.67386 38.3762C4.28016 37.7134 4.08331 36.879 4.08331 35.8733C4.08331 34.7303 4.40754 33.7589 5.05597 32.9588C5.70441 32.1588 6.53812 31.5416 7.5571 31.1073C8.59924 30.673 9.68769 30.4558 10.8225 30.4558C11.5404 30.4558 12.293 30.5473 13.0804 30.7301C13.8678 30.8901 14.6205 31.1644 15.3384 31.553C16.0563 31.9188 16.6584 32.4102 17.1447 33.0274C17.3995 33.3703 17.55 33.7817 17.5963 34.2617C17.6427 34.7418 17.4226 35.1761 16.9363 35.5647C16.5889 35.839 16.1837 35.9647 15.7205 35.9418C15.2573 35.8961 14.8752 35.7361 14.5741 35.4618C14.1804 34.9589 13.6478 34.5589 12.9762 34.2617C12.3278 33.9646 11.5751 33.816 10.7182 33.816C10.3709 33.816 9.98875 33.8617 9.57189 33.9532C9.1782 34.0217 8.83082 34.1932 8.52976 34.4675C8.2287 34.7189 8.07817 35.1304 8.07817 35.7018C8.07817 36.2276 8.25186 36.6504 8.59923 36.9705C8.94661 37.2676 9.40978 37.5191 9.98875 37.7248C10.5909 37.9076 11.2277 38.0905 11.8993 38.2734C12.5941 38.4562 13.3004 38.6734 14.0183 38.9248C14.7363 39.1763 15.3963 39.5077 15.9984 39.9192C16.6005 40.3306 17.0868 40.8678 17.4574 41.5307C17.8279 42.1707 18.0132 42.9936 18.0132 43.9994C18.0132 45.1652 17.6658 46.1595 16.9711 46.9824C16.2763 47.8053 15.4079 48.4339 14.3657 48.8682C13.3236 49.2796 12.2583 49.4854 11.1698 49.4854C9.80348 49.4854 8.43712 49.2568 7.07077 48.7996C5.70441 48.3196 4.56964 47.4853 3.66646 46.2966Z" fill="#3C7E41"/>
<path d="M31.8041 30.4558C33.4252 30.4558 34.8726 30.8673 36.1463 31.6902C37.4432 32.4902 38.4622 33.5989 39.2033 35.0161C39.9675 36.4333 40.3496 38.0791 40.3496 39.9535C40.3496 41.8278 39.9675 43.4851 39.2033 44.9251C38.4622 46.3424 37.4548 47.4624 36.1811 48.2853C34.9305 49.0854 33.5178 49.4854 31.9431 49.4854C31.0167 49.4854 30.1483 49.3368 29.3377 49.0396C28.5272 48.7425 27.8093 48.3653 27.184 47.9082C26.5819 47.451 26.1071 46.9938 25.7597 46.5367C25.4355 46.0566 25.2734 45.6566 25.2734 45.3366L26.3503 44.8909V53.9085C26.3503 54.5028 26.1534 54.9942 25.7597 55.3828C25.366 55.7943 24.8681 56 24.266 56C23.6639 56 23.166 55.8057 22.7723 55.4171C22.3786 55.0285 22.1817 54.5256 22.1817 53.9085V32.8902C22.1817 32.2959 22.3786 31.8045 22.7723 31.4159C23.166 31.0044 23.6639 30.7987 24.266 30.7987C24.8681 30.7987 25.366 31.0044 25.7597 31.4159C26.1534 31.8045 26.3503 32.2959 26.3503 32.8902V34.5703L25.7597 34.2617C25.7597 33.9646 25.9218 33.6103 26.2461 33.1988C26.5703 32.7645 27.0103 32.3416 27.5661 31.9302C28.1219 31.4959 28.7588 31.1416 29.4767 30.8673C30.2178 30.593 30.9936 30.4558 31.8041 30.4558ZM31.283 34.2275C30.2641 34.2275 29.3725 34.4789 28.6082 34.9818C27.844 35.4847 27.2419 36.1704 26.8019 37.039C26.385 37.8848 26.1766 38.8563 26.1766 39.9535C26.1766 41.0278 26.385 42.0107 26.8019 42.9022C27.2419 43.7708 27.844 44.4566 28.6082 44.9594C29.3725 45.4623 30.2641 45.7138 31.283 45.7138C32.302 45.7138 33.1821 45.4623 33.9231 44.9594C34.6874 44.4566 35.2779 43.7708 35.6948 42.9022C36.1348 42.0107 36.3548 41.0278 36.3548 39.9535C36.3548 38.8563 36.1348 37.8848 35.6948 37.039C35.2779 36.1704 34.6874 35.4847 33.9231 34.9818C33.1821 34.4789 32.302 34.2275 31.283 34.2275Z" fill="#3C7E41"/>
<path d="M60.6018 30.4558C61.2039 30.4558 61.7018 30.6501 62.0955 31.0387C62.4892 31.4273 62.6861 31.9302 62.6861 32.5474V47.051C62.6861 47.6453 62.4892 48.1482 62.0955 48.5596C61.7018 48.9482 61.2039 49.1425 60.6018 49.1425C59.9997 49.1425 59.5018 48.9482 59.1081 48.5596C58.7144 48.1482 58.5175 47.6453 58.5175 47.051V45.3709L59.2817 45.6795C59.2817 45.9766 59.1196 46.3424 58.7954 46.7767C58.4712 47.1881 58.0312 47.5996 57.4754 48.011C56.9196 48.4225 56.2596 48.7768 55.4953 49.0739C54.7542 49.3482 53.9437 49.4854 53.0637 49.4854C51.4657 49.4854 50.0183 49.0854 48.7214 48.2853C47.4246 47.4624 46.394 46.3424 45.6298 44.9251C44.8887 43.4851 44.5182 41.8393 44.5182 39.9878C44.5182 38.1134 44.8887 36.4676 45.6298 35.0504C46.394 33.6103 47.413 32.4902 48.6867 31.6902C49.9604 30.8673 51.3731 30.4558 52.9247 30.4558C53.9205 30.4558 54.8353 30.6044 55.669 30.9016C56.5027 31.1987 57.2206 31.5759 57.8228 32.0331C58.448 32.4902 58.9228 32.9588 59.247 33.4388C59.5944 33.896 59.7681 34.2846 59.7681 34.6046L58.5175 35.0504V32.5474C58.5175 31.9531 58.7144 31.4616 59.1081 31.073C59.5018 30.6616 59.9997 30.4558 60.6018 30.4558ZM53.5847 45.7138C54.6037 45.7138 55.4953 45.4623 56.2595 44.9594C57.0238 44.4566 57.6143 43.7708 58.0312 42.9022C58.4712 42.0336 58.6912 41.0621 58.6912 39.9878C58.6912 38.8906 58.4712 37.9076 58.0312 37.039C57.6143 36.1704 57.0238 35.4847 56.2595 34.9818C55.4953 34.4789 54.6037 34.2275 53.5847 34.2275C52.5889 34.2275 51.7089 34.4789 50.9447 34.9818C50.1804 35.4847 49.5783 36.1704 49.1383 37.039C48.7214 37.9076 48.513 38.8906 48.513 39.9878C48.513 41.0621 48.7214 42.0336 49.1383 42.9022C49.5783 43.7708 50.1804 44.4566 50.9447 44.9594C51.7089 45.4623 52.5889 45.7138 53.5847 45.7138Z" fill="#3C7E41"/>
<path d="M75.9906 30.4558C77.3107 30.4558 78.457 30.593 79.4297 30.8673C80.4255 31.1416 81.1897 31.5302 81.7224 32.0331C82.2782 32.5131 82.5561 33.096 82.5561 33.7817C82.5561 34.2389 82.4171 34.6732 82.1392 35.0846C81.8613 35.4732 81.4561 35.6675 80.9234 35.6675C80.5529 35.6675 80.2402 35.6218 79.9855 35.5304C79.7539 35.4161 79.5455 35.2789 79.3602 35.1189C79.175 34.9589 78.9549 34.8103 78.7002 34.6732C78.4686 34.536 78.1096 34.4332 77.6233 34.3646C77.1601 34.2732 76.8128 34.2275 76.5812 34.2275C75.4001 34.2275 74.3927 34.4789 73.559 34.9818C72.7485 35.4847 72.1232 36.1704 71.6832 37.039C71.2431 37.8848 71.0231 38.8677 71.0231 39.9878C71.0231 41.085 71.2431 42.0679 71.6832 42.9365C72.1463 43.7822 72.7716 44.4566 73.559 44.9594C74.3695 45.4623 75.2959 45.7138 76.338 45.7138C76.917 45.7138 77.4149 45.6795 77.8318 45.6109C78.2486 45.5423 78.596 45.4395 78.8739 45.3023C79.1981 45.1194 79.4876 44.9252 79.7423 44.7194C79.9971 44.5137 80.3792 44.4108 80.8887 44.4108C81.4908 44.4108 81.954 44.6051 82.2782 44.9937C82.6024 45.3595 82.7645 45.8166 82.7645 46.3652C82.7645 46.9367 82.4403 47.4624 81.7919 47.9424C81.1434 48.3996 80.2866 48.7768 79.2213 49.0739C78.1791 49.3482 77.0444 49.4854 75.817 49.4854C73.9874 49.4854 72.4011 49.0739 71.0579 48.251C69.7147 47.4053 68.6725 46.2624 67.9315 44.8223C67.2135 43.3822 66.8546 41.7707 66.8546 39.9878C66.8546 38.1134 67.2367 36.4676 68.0009 35.0504C68.7883 33.6103 69.8652 32.4902 71.2316 31.6902C72.6211 30.8673 74.2074 30.4558 75.9906 30.4558Z" fill="#3C7E41"/>
<path d="M96.5554 49.4854C94.587 49.4854 92.8732 49.0854 91.4142 48.2853C89.9784 47.4624 88.8668 46.3538 88.0794 44.9594C87.3152 43.5651 86.9331 41.9879 86.9331 40.2278C86.9331 38.1705 87.3499 36.4219 88.1836 34.9818C89.0405 33.5189 90.1521 32.3988 91.5185 31.6216C92.8848 30.8444 94.3322 30.4558 95.8607 30.4558C97.0418 30.4558 98.1534 30.6959 99.1955 31.1759C100.261 31.6559 101.199 32.3188 102.009 33.1645C102.82 33.9874 103.457 34.9475 103.92 36.0447C104.406 37.1419 104.649 38.3077 104.649 39.542C104.626 40.0906 104.406 40.5364 103.989 40.8792C103.572 41.2221 103.086 41.3935 102.53 41.3935H89.2605L88.2184 37.9648H100.967L100.203 38.6505V37.7248C100.157 37.0619 99.9134 36.4676 99.4734 35.9418C99.0566 35.4161 98.5239 35.0046 97.8755 34.7075C97.2502 34.3875 96.5786 34.2275 95.8607 34.2275C95.1659 34.2275 94.5175 34.3189 93.9154 34.5018C93.3132 34.6846 92.7922 34.9932 92.3522 35.4275C91.9121 35.8618 91.5648 36.4447 91.31 37.1762C91.0553 37.9076 90.9279 38.8334 90.9279 39.9535C90.9279 41.1878 91.1827 42.2393 91.6921 43.1079C92.2248 43.9537 92.8964 44.6051 93.7069 45.0623C94.5406 45.4966 95.4207 45.7138 96.347 45.7138C97.2039 45.7138 97.887 45.6452 98.3965 45.508C98.906 45.3709 99.3113 45.2109 99.6124 45.028C99.9366 44.8223 100.226 44.6509 100.481 44.5137C100.898 44.308 101.291 44.2051 101.662 44.2051C102.171 44.2051 102.588 44.3766 102.912 44.7194C103.26 45.0623 103.434 45.4623 103.434 45.9195C103.434 46.5367 103.109 47.0967 102.461 47.5996C101.859 48.1025 101.013 48.5482 99.925 48.9368C98.8366 49.3025 97.7134 49.4854 96.5554 49.4854Z" fill="#3C7E41"/>
</svg>
