<svg width="19" height="17" viewBox="0 0 19 17" fill="none" xmlns="http://www.w3.org/2000/svg">
<path d="M6.9375 6.60938H18.1875C18.2906 6.60938 18.375 6.525 18.375 6.42188V5.10938C18.375 5.00625 18.2906 4.92188 18.1875 4.92188H6.9375C6.83437 4.92188 6.75 5.00625 6.75 5.10938V6.42188C6.75 6.525 6.83437 6.60938 6.9375 6.60938ZM6.75 11.3906C6.75 11.4937 6.83437 11.5781 6.9375 11.5781H18.1875C18.2906 11.5781 18.375 11.4937 18.375 11.3906V10.0781C18.375 9.975 18.2906 9.89062 18.1875 9.89062H6.9375C6.83437 9.89062 6.75 9.975 6.75 10.0781V11.3906ZM18.5625 0H0.1875C0.084375 0 0 0.084375 0 0.1875V1.5C0 1.60312 0.084375 1.6875 0.1875 1.6875H18.5625C18.6656 1.6875 18.75 1.60312 18.75 1.5V0.1875C18.75 0.084375 18.6656 0 18.5625 0ZM18.5625 14.8125H0.1875C0.084375 14.8125 0 14.8969 0 15V16.3125C0 16.4156 0.084375 16.5 0.1875 16.5H18.5625C18.6656 16.5 18.75 16.4156 18.75 16.3125V15C18.75 14.8969 18.6656 14.8125 18.5625 14.8125ZM0.7125 11.2992L4.37578 8.41406C4.40045 8.39468 4.42039 8.36994 4.4341 8.34172C4.44781 8.31351 4.45493 8.28254 4.45493 8.25117C4.45493 8.2198 4.44781 8.18884 4.4341 8.16062C4.42039 8.1324 4.40045 8.10767 4.37578 8.08828L0.7125 5.20078C0.576562 5.09297 0.375 5.18906 0.375 5.3625V11.1352C0.374987 11.1743 0.38599 11.2127 0.406751 11.2458C0.427511 11.279 0.457192 11.3057 0.492398 11.3228C0.527605 11.3399 0.566916 11.3468 0.605839 11.3426C0.644761 11.3385 0.681724 11.3234 0.7125 11.2992Z" fill="black" fill-opacity="0.8"/>
</svg>
