<svg width="20" height="20" viewBox="0 0 20 20" fill="none" xmlns="http://www.w3.org/2000/svg">
<path d="M10.0093 7.6283C9.42536 7.6283 8.87849 7.85486 8.46443 8.26892C8.05232 8.68298 7.8238 9.22986 7.8238 9.81384C7.8238 10.3978 8.05232 10.9447 8.46443 11.3588C8.87849 11.7709 9.42536 11.9994 10.0093 11.9994C10.5933 11.9994 11.1402 11.7709 11.5543 11.3588C11.9664 10.9447 12.1949 10.3978 12.1949 9.81384C12.1949 9.22986 11.9664 8.68298 11.5543 8.26892C11.352 8.06513 11.1113 7.90355 10.8461 7.79357C10.5809 7.6836 10.2965 7.62742 10.0093 7.6283ZM18.0621 12.2279L16.7847 11.1361C16.8453 10.765 16.8765 10.3861 16.8765 10.0092C16.8765 9.6322 16.8453 9.25134 16.7847 8.8822L18.0621 7.79041C18.1586 7.7078 18.2276 7.59778 18.2601 7.47497C18.2925 7.35217 18.2868 7.22239 18.2437 7.10291L18.2261 7.05212C17.8746 6.0691 17.3479 5.1579 16.6715 4.36267L16.6363 4.32166C16.5542 4.22508 16.4447 4.15565 16.3223 4.12253C16.1999 4.08941 16.0704 4.09414 15.9508 4.13611L14.3648 4.70056C13.7789 4.22009 13.1265 3.84119 12.4195 3.57751L12.1129 1.91931C12.0897 1.79439 12.0291 1.67947 11.9391 1.58982C11.8491 1.50016 11.734 1.44001 11.609 1.41736L11.5562 1.40759C10.5406 1.224 9.47028 1.224 8.45466 1.40759L8.40193 1.41736C8.27692 1.44001 8.16176 1.50016 8.07176 1.58982C7.98175 1.67947 7.92115 1.79439 7.89802 1.91931L7.58943 3.58533C6.88909 3.8511 6.23668 4.22909 5.65779 4.70447L4.06013 4.13611C3.94053 4.09381 3.81089 4.0889 3.68844 4.12205C3.56599 4.15519 3.45652 4.22481 3.37458 4.32166L3.33943 4.36267C2.66422 5.15875 2.13761 6.06972 1.78474 7.05212L1.76716 7.10291C1.67927 7.34705 1.75154 7.62048 1.9488 7.79041L3.24177 8.89392C3.18122 9.26111 3.15193 9.63611 3.15193 10.0072C3.15193 10.3822 3.18122 10.7572 3.24177 11.1205L1.95271 12.224C1.85621 12.3066 1.78715 12.4166 1.75471 12.5394C1.72226 12.6622 1.72797 12.792 1.77107 12.9115L1.78864 12.9623C2.14216 13.9447 2.66364 14.8529 3.34333 15.6517L3.37849 15.6927C3.46063 15.7893 3.5701 15.8588 3.69248 15.8919C3.81486 15.925 3.9444 15.9203 4.06404 15.8783L5.66169 15.3099C6.24372 15.7885 6.89216 16.1674 7.59333 16.4291L7.90193 18.0951C7.92506 18.22 7.98566 18.3349 8.07566 18.4246C8.16567 18.5142 8.28083 18.5744 8.40583 18.597L8.45857 18.6068C9.48418 18.7914 10.5345 18.7914 11.5601 18.6068L11.6129 18.597C11.7379 18.5744 11.853 18.5142 11.943 18.4246C12.033 18.3349 12.0936 18.22 12.1168 18.0951L12.4234 16.4369C13.1304 16.1713 13.7828 15.7943 14.3687 15.3138L15.9547 15.8783C16.0743 15.9206 16.2039 15.9255 16.3263 15.8924C16.4488 15.8592 16.5583 15.7896 16.6402 15.6927L16.6754 15.6517C17.355 14.849 17.8765 13.9447 18.23 12.9623L18.2476 12.9115C18.3316 12.6693 18.2593 12.3978 18.0621 12.2279ZM10.0093 13.2474C8.11286 13.2474 6.57575 11.7103 6.57575 9.81384C6.57575 7.91736 8.11286 6.38025 10.0093 6.38025C11.9058 6.38025 13.4429 7.91736 13.4429 9.81384C13.4429 11.7103 11.9058 13.2474 10.0093 13.2474Z" fill="black" fill-opacity="0.55"/>
</svg>
